<svg id="Layer_1" data-name="Layer 1" xmlns="http://www.w3.org/2000/svg" xmlns:xlink="http://www.w3.org/1999/xlink" viewBox="0 0 800 289.96"><defs><style>.cls-1{fill:url(#New_Gradient_Swatch_54);}.cls-2{fill:#fff;}</style><radialGradient id="New_Gradient_Swatch_54" cx="155.85" cy="389.32" r="268.89" gradientUnits="userSpaceOnUse"><stop offset="0" stop-color="#fadc2f"/><stop offset="0.36" stop-color="#ef1b52"/><stop offset="0.73" stop-color="#e515af"/><stop offset="1" stop-color="#06bdef"/></radialGradient></defs><title>Sphere Finance Logo02 003</title><path class="cls-1" d="M390,500a144.11,144.11,0,0,0-26.54-83.5,47,47,0,0,0-3.07-4.2,1.73,1.73,0,0,1-.17-.21c-.4-.51-.8-1-1.2-1.48A143.77,143.77,0,0,0,245,355C165.05,355,100,420,100,500V500C100,580,165.05,645,245,645a143.88,143.88,0,0,0,77.73-22.63l.63-.43A145,145,0,0,0,390,500ZM245,372a127,127,0,0,1,102,50.73l.08.1c.81,1.08,1.6,2.17,2.38,3.27a30.83,30.83,0,0,1,4.89,16.29,29.14,29.14,0,0,1-29.11,29.11c-10.51,0-20.93-6.73-26.54-17.15-19.89-36.89-55.06-58.92-94.08-58.92a104,104,0,0,0-47.07,11.2A127.57,127.57,0,0,1,245,372ZM117,500a87.69,87.69,0,0,1,87.59-87.59c32.67,0,62.25,18.69,79.13,50,8.54,15.83,24.83,26.07,41.49,26.07a46.14,46.14,0,0,0,41.87-26.93,127.67,127.67,0,0,1-25.73,122.57,41.61,41.61,0,0,0-41.4-38.19c-12.47,0-23.74,8.07-29.16,11.94l-1.21.87c-15.07,10.79-40.29,28.85-65,28.85A87.69,87.69,0,0,1,117,500Zm40.52,93.37a104,104,0,0,0,47.07,11.2c30.15,0,58.15-20.05,74.88-32l1.2-.86c4-2.85,12.25-8.77,19.28-8.77a24.63,24.63,0,0,1,24.6,24.6,23.85,23.85,0,0,1-10.47,20.17c-2.22,1.43-4.48,2.8-6.79,4.09l0,0A125.12,125.12,0,0,1,245,628,127.57,127.57,0,0,1,157.5,593.37Z" transform="translate(-100 -355.02)"/><path class="cls-1" d="M212.85,560.47a58.77,58.77,0,1,0-25-111.9,33.3,33.3,0,0,0-33.61,57.48A58.84,58.84,0,0,0,212.85,560.47Zm41.79-58.77a41.76,41.76,0,0,1-82.46,9.38A33.29,33.29,0,0,0,201,461.66a41.73,41.73,0,0,1,53.66,40Zm-82.82-40.29a16.36,16.36,0,1,1-16.36,16.35A16.38,16.38,0,0,1,171.82,461.41Z" transform="translate(-100 -355.02)"/><path class="cls-2" d="M473.26,441.85a6.75,6.75,0,0,0-2.52,5.49,6.2,6.2,0,0,0,3.08,5.43q3.09,2,14.23,4.76t17.31,8.23q6.15,5.49,6.16,16a21.15,21.15,0,0,1-7.9,17.09q-7.89,6.54-20.78,6.55-18.6,0-33.49-13.78l10.42-12.77Q472.42,490,483.18,490a12.3,12.3,0,0,0,7.56-2.07,6.65,6.65,0,0,0,2.74-5.6,6.52,6.52,0,0,0-2.91-5.6q-2.91-2.08-11.54-4.21-13.66-3.24-20-8.45t-6.33-16.36q0-11.15,8-17.19t20-6.05a47.94,47.94,0,0,1,15.69,2.69,42.06,42.06,0,0,1,13.66,7.61l-8.85,12.77q-10.18-7.72-21.06-7.73A10.55,10.55,0,0,0,473.26,441.85Z" transform="translate(-100 -355.02)"/><path class="cls-2" d="M580.35,433.22q8.24,7,8.24,21.51T580.13,476q-8.46,6.72-25.82,6.72H543.89v21.84H526.42v-78.3h27.67Q572.12,426.22,580.35,433.22ZM567.53,464q3.13-3.54,3.13-10.31t-4.08-9.63q-4.1-2.86-12.72-2.86h-10v26.33h11.76Q564.4,467.56,567.53,464Z" transform="translate(-100 -355.02)"/><path class="cls-2" d="M650.87,426.22h17.47v78.3H650.87v-30.8H619.73v30.8H602.25v-78.3h17.48v32.71h31.14Z" transform="translate(-100 -355.02)"/><path class="cls-2" d="M744.07,426.22v15.57h-39v16.13h35.06v14.9H705.09v16.24H745.3v15.46H687.61v-78.3Z" transform="translate(-100 -355.02)"/><path class="cls-2" d="M824.39,452.21q0,18.82-14.9,24.31l19.83,28H807.81l-17.36-25h-12.1v25H760.87v-78.3h29.69q18.26,0,26,6.16T824.39,452.21Zm-21.06,9.3q3.24-2.91,3.25-9.25t-3.36-8.68q-3.36-2.34-11.77-2.35h-13.1v23.19h12.77Q800.08,464.42,803.33,461.51Z" transform="translate(-100 -355.02)"/><path class="cls-2" d="M898.77,426.22v15.57h-39v16.13h35.07v14.9H859.78v16.24H900v15.46H842.31v-78.3Z" transform="translate(-100 -355.02)"/><path class="cls-2" d="M491,526.85v9.44H468.71V546.7h21.23v9.44H468.71V575H458V526.85Z" transform="translate(-100 -355.02)"/><path class="cls-2" d="M520.81,526.85h10.75V575H520.81Z" transform="translate(-100 -355.02)"/><path class="cls-2" d="M597.78,526.85h10.75V575H597.78l-22.95-30.18V575H564.08V526.85h10.07l23.63,31Z" transform="translate(-100 -355.02)"/><path class="cls-2" d="M675.38,575l-4.48-10.4H650.71L646.23,575H634.79l20.81-48.17H666L686.82,575Zm-14.54-33.83-6.07,14h12.06Z" transform="translate(-100 -355.02)"/><path class="cls-2" d="M746.77,526.85h10.75V575H746.77l-22.95-30.18V575H713.07V526.85h10.06l23.64,31Z" transform="translate(-100 -355.02)"/><path class="cls-2" d="M812.16,565.51a15.86,15.86,0,0,0,13-6.27l6.89,7.1q-8.21,9.23-19.33,9.23t-18.33-7a25.45,25.45,0,0,1,.14-35.62,24.71,24.71,0,0,1,18-7.17,25.45,25.45,0,0,1,19.85,9l-6.69,7.58A15.64,15.64,0,0,0,812.92,536a14.78,14.78,0,0,0-10.37,4q-4.31,4-4.31,10.68t4.07,10.79A13.42,13.42,0,0,0,812.16,565.51Z" transform="translate(-100 -355.02)"/><path class="cls-2" d="M895.89,526.85v9.58h-24v9.92h21.57v9.17H871.91v10h24.74V575H861.16V526.85Z" transform="translate(-100 -355.02)"/></svg>